<mxfile host="app.diagrams.net" modified="2024-04-13T05:23:05.124Z" agent="Mozilla/5.0 (Windows NT 10.0; Win64; x64) AppleWebKit/537.36 (KHTML, like Gecko) Chrome/123.0.0.0 Safari/537.36" etag="F4JRD_kyKl2XnqEYNw8J" version="24.0.6" type="device">
  <diagram name="Page-1" id="cLIMuBX-lO69OExPFwcd">
    <mxGraphModel dx="1275" dy="671" grid="1" gridSize="10" guides="1" tooltips="1" connect="1" arrows="1" fold="1" page="1" pageScale="1" pageWidth="850" pageHeight="1100" math="0" shadow="0">
      <root>
        <mxCell id="0" />
        <mxCell id="1" parent="0" />
        <mxCell id="OtnDP2cq1KqatE_Lq1au-123" style="edgeStyle=orthogonalEdgeStyle;rounded=0;orthogonalLoop=1;jettySize=auto;html=1;exitX=0.5;exitY=0;exitDx=0;exitDy=0;entryX=0.5;entryY=1;entryDx=0;entryDy=0;endArrow=none;endFill=0;" edge="1" parent="1" source="OtnDP2cq1KqatE_Lq1au-1" target="OtnDP2cq1KqatE_Lq1au-12">
          <mxGeometry relative="1" as="geometry" />
        </mxCell>
        <mxCell id="OtnDP2cq1KqatE_Lq1au-124" style="edgeStyle=orthogonalEdgeStyle;rounded=0;orthogonalLoop=1;jettySize=auto;html=1;exitX=0.5;exitY=0;exitDx=0;exitDy=0;entryX=0.5;entryY=1;entryDx=0;entryDy=0;endArrow=none;endFill=0;" edge="1" parent="1" source="OtnDP2cq1KqatE_Lq1au-1" target="OtnDP2cq1KqatE_Lq1au-18">
          <mxGeometry relative="1" as="geometry" />
        </mxCell>
        <mxCell id="OtnDP2cq1KqatE_Lq1au-125" style="edgeStyle=orthogonalEdgeStyle;rounded=0;orthogonalLoop=1;jettySize=auto;html=1;exitX=0.5;exitY=0;exitDx=0;exitDy=0;entryX=0.5;entryY=1;entryDx=0;entryDy=0;endArrow=none;endFill=0;" edge="1" parent="1" source="OtnDP2cq1KqatE_Lq1au-1" target="OtnDP2cq1KqatE_Lq1au-19">
          <mxGeometry relative="1" as="geometry" />
        </mxCell>
        <mxCell id="OtnDP2cq1KqatE_Lq1au-126" style="edgeStyle=orthogonalEdgeStyle;rounded=0;orthogonalLoop=1;jettySize=auto;html=1;exitX=0.5;exitY=0;exitDx=0;exitDy=0;entryX=0.5;entryY=1;entryDx=0;entryDy=0;endArrow=none;endFill=0;" edge="1" parent="1" source="OtnDP2cq1KqatE_Lq1au-1" target="OtnDP2cq1KqatE_Lq1au-20">
          <mxGeometry relative="1" as="geometry" />
        </mxCell>
        <mxCell id="OtnDP2cq1KqatE_Lq1au-128" style="edgeStyle=orthogonalEdgeStyle;rounded=0;orthogonalLoop=1;jettySize=auto;html=1;exitX=0.5;exitY=0;exitDx=0;exitDy=0;entryX=0.5;entryY=1;entryDx=0;entryDy=0;endArrow=none;endFill=0;" edge="1" parent="1" source="OtnDP2cq1KqatE_Lq1au-1" target="OtnDP2cq1KqatE_Lq1au-27">
          <mxGeometry relative="1" as="geometry" />
        </mxCell>
        <mxCell id="OtnDP2cq1KqatE_Lq1au-129" style="edgeStyle=orthogonalEdgeStyle;rounded=0;orthogonalLoop=1;jettySize=auto;html=1;exitX=0.5;exitY=0;exitDx=0;exitDy=0;entryX=0.5;entryY=1;entryDx=0;entryDy=0;endArrow=none;endFill=0;" edge="1" parent="1" source="OtnDP2cq1KqatE_Lq1au-1" target="OtnDP2cq1KqatE_Lq1au-26">
          <mxGeometry relative="1" as="geometry" />
        </mxCell>
        <mxCell id="OtnDP2cq1KqatE_Lq1au-130" style="edgeStyle=orthogonalEdgeStyle;rounded=0;orthogonalLoop=1;jettySize=auto;html=1;exitX=0.5;exitY=0;exitDx=0;exitDy=0;entryX=0.5;entryY=1;entryDx=0;entryDy=0;endArrow=none;endFill=0;" edge="1" parent="1" source="OtnDP2cq1KqatE_Lq1au-1" target="OtnDP2cq1KqatE_Lq1au-25">
          <mxGeometry relative="1" as="geometry" />
        </mxCell>
        <mxCell id="OtnDP2cq1KqatE_Lq1au-131" style="edgeStyle=orthogonalEdgeStyle;rounded=0;orthogonalLoop=1;jettySize=auto;html=1;exitX=0.5;exitY=0;exitDx=0;exitDy=0;entryX=0.5;entryY=1;entryDx=0;entryDy=0;endArrow=none;endFill=0;" edge="1" parent="1" source="OtnDP2cq1KqatE_Lq1au-1" target="OtnDP2cq1KqatE_Lq1au-24">
          <mxGeometry relative="1" as="geometry" />
        </mxCell>
        <mxCell id="OtnDP2cq1KqatE_Lq1au-191" value="1" style="edgeStyle=orthogonalEdgeStyle;rounded=0;orthogonalLoop=1;jettySize=auto;html=1;exitX=0.5;exitY=1;exitDx=0;exitDy=0;entryX=0.5;entryY=0;entryDx=0;entryDy=0;endArrow=none;endFill=0;" edge="1" parent="1" source="OtnDP2cq1KqatE_Lq1au-1" target="OtnDP2cq1KqatE_Lq1au-157">
          <mxGeometry relative="1" as="geometry" />
        </mxCell>
        <mxCell id="OtnDP2cq1KqatE_Lq1au-192" value="1" style="edgeStyle=orthogonalEdgeStyle;rounded=0;orthogonalLoop=1;jettySize=auto;html=1;exitX=0.5;exitY=1;exitDx=0;exitDy=0;entryX=0.5;entryY=0;entryDx=0;entryDy=0;endArrow=none;endFill=0;" edge="1" parent="1" source="OtnDP2cq1KqatE_Lq1au-1" target="OtnDP2cq1KqatE_Lq1au-183">
          <mxGeometry relative="1" as="geometry" />
        </mxCell>
        <mxCell id="OtnDP2cq1KqatE_Lq1au-1" value="People" style="rounded=0;whiteSpace=wrap;html=1;" vertex="1" parent="1">
          <mxGeometry x="680" y="110" width="130" height="40" as="geometry" />
        </mxCell>
        <mxCell id="OtnDP2cq1KqatE_Lq1au-111" style="edgeStyle=orthogonalEdgeStyle;rounded=0;orthogonalLoop=1;jettySize=auto;html=1;exitX=1;exitY=0.5;exitDx=0;exitDy=0;entryX=0.5;entryY=1;entryDx=0;entryDy=0;" edge="1" parent="1" source="OtnDP2cq1KqatE_Lq1au-2" target="OtnDP2cq1KqatE_Lq1au-21">
          <mxGeometry relative="1" as="geometry" />
        </mxCell>
        <mxCell id="OtnDP2cq1KqatE_Lq1au-122" style="edgeStyle=orthogonalEdgeStyle;rounded=0;orthogonalLoop=1;jettySize=auto;html=1;exitX=1;exitY=0.5;exitDx=0;exitDy=0;entryX=0.5;entryY=1;entryDx=0;entryDy=0;" edge="1" parent="1" source="OtnDP2cq1KqatE_Lq1au-2" target="OtnDP2cq1KqatE_Lq1au-23">
          <mxGeometry relative="1" as="geometry" />
        </mxCell>
        <mxCell id="OtnDP2cq1KqatE_Lq1au-2" value="ExerciseRoutines" style="rounded=0;whiteSpace=wrap;html=1;" vertex="1" parent="1">
          <mxGeometry x="850" y="166.5" width="130" height="40" as="geometry" />
        </mxCell>
        <mxCell id="OtnDP2cq1KqatE_Lq1au-112" style="edgeStyle=orthogonalEdgeStyle;rounded=0;orthogonalLoop=1;jettySize=auto;html=1;exitX=1;exitY=0.5;exitDx=0;exitDy=0;entryX=0;entryY=0.5;entryDx=0;entryDy=0;endArrow=none;endFill=0;" edge="1" parent="1" source="OtnDP2cq1KqatE_Lq1au-3" target="OtnDP2cq1KqatE_Lq1au-74">
          <mxGeometry relative="1" as="geometry" />
        </mxCell>
        <mxCell id="OtnDP2cq1KqatE_Lq1au-114" style="edgeStyle=orthogonalEdgeStyle;rounded=0;orthogonalLoop=1;jettySize=auto;html=1;exitX=1;exitY=0.5;exitDx=0;exitDy=0;entryX=0;entryY=0.5;entryDx=0;entryDy=0;endArrow=none;endFill=0;" edge="1" parent="1" source="OtnDP2cq1KqatE_Lq1au-3" target="OtnDP2cq1KqatE_Lq1au-73">
          <mxGeometry relative="1" as="geometry" />
        </mxCell>
        <mxCell id="OtnDP2cq1KqatE_Lq1au-115" style="edgeStyle=orthogonalEdgeStyle;rounded=0;orthogonalLoop=1;jettySize=auto;html=1;exitX=1;exitY=0.5;exitDx=0;exitDy=0;entryX=0;entryY=0.5;entryDx=0;entryDy=0;endArrow=none;endFill=0;" edge="1" parent="1" source="OtnDP2cq1KqatE_Lq1au-3" target="OtnDP2cq1KqatE_Lq1au-69">
          <mxGeometry relative="1" as="geometry">
            <Array as="points">
              <mxPoint x="1010" y="397" />
              <mxPoint x="1010" y="337" />
            </Array>
          </mxGeometry>
        </mxCell>
        <mxCell id="OtnDP2cq1KqatE_Lq1au-116" style="edgeStyle=orthogonalEdgeStyle;rounded=0;orthogonalLoop=1;jettySize=auto;html=1;exitX=1;exitY=0.5;exitDx=0;exitDy=0;entryX=0;entryY=0.5;entryDx=0;entryDy=0;endArrow=none;endFill=0;" edge="1" parent="1" source="OtnDP2cq1KqatE_Lq1au-3" target="OtnDP2cq1KqatE_Lq1au-72">
          <mxGeometry relative="1" as="geometry" />
        </mxCell>
        <mxCell id="OtnDP2cq1KqatE_Lq1au-117" style="edgeStyle=orthogonalEdgeStyle;rounded=0;orthogonalLoop=1;jettySize=auto;html=1;exitX=1;exitY=0.5;exitDx=0;exitDy=0;entryX=0;entryY=0.5;entryDx=0;entryDy=0;endArrow=none;endFill=0;" edge="1" parent="1" source="OtnDP2cq1KqatE_Lq1au-3" target="OtnDP2cq1KqatE_Lq1au-68">
          <mxGeometry relative="1" as="geometry">
            <Array as="points">
              <mxPoint x="990" y="397" />
              <mxPoint x="990" y="397" />
            </Array>
          </mxGeometry>
        </mxCell>
        <mxCell id="OtnDP2cq1KqatE_Lq1au-118" style="edgeStyle=orthogonalEdgeStyle;rounded=0;orthogonalLoop=1;jettySize=auto;html=1;exitX=1;exitY=0.5;exitDx=0;exitDy=0;entryX=0;entryY=0.5;entryDx=0;entryDy=0;endArrow=none;endFill=0;" edge="1" parent="1" source="OtnDP2cq1KqatE_Lq1au-3" target="OtnDP2cq1KqatE_Lq1au-71">
          <mxGeometry relative="1" as="geometry" />
        </mxCell>
        <mxCell id="OtnDP2cq1KqatE_Lq1au-119" style="edgeStyle=orthogonalEdgeStyle;rounded=0;orthogonalLoop=1;jettySize=auto;html=1;exitX=1;exitY=0.5;exitDx=0;exitDy=0;entryX=0;entryY=0.5;entryDx=0;entryDy=0;endArrow=none;endFill=0;" edge="1" parent="1" source="OtnDP2cq1KqatE_Lq1au-3" target="OtnDP2cq1KqatE_Lq1au-51">
          <mxGeometry relative="1" as="geometry">
            <Array as="points">
              <mxPoint x="1010" y="397" />
              <mxPoint x="1010" y="458" />
            </Array>
          </mxGeometry>
        </mxCell>
        <mxCell id="OtnDP2cq1KqatE_Lq1au-120" style="edgeStyle=orthogonalEdgeStyle;rounded=0;orthogonalLoop=1;jettySize=auto;html=1;exitX=1;exitY=0.5;exitDx=0;exitDy=0;entryX=0;entryY=0.5;entryDx=0;entryDy=0;endArrow=none;endFill=0;" edge="1" parent="1" source="OtnDP2cq1KqatE_Lq1au-3" target="OtnDP2cq1KqatE_Lq1au-52">
          <mxGeometry relative="1" as="geometry">
            <Array as="points">
              <mxPoint x="1010" y="397" />
              <mxPoint x="1010" y="519" />
            </Array>
          </mxGeometry>
        </mxCell>
        <mxCell id="OtnDP2cq1KqatE_Lq1au-194" value="N" style="edgeStyle=orthogonalEdgeStyle;rounded=0;orthogonalLoop=1;jettySize=auto;html=1;exitX=0.5;exitY=0;exitDx=0;exitDy=0;entryX=0.5;entryY=1;entryDx=0;entryDy=0;endArrow=none;endFill=0;" edge="1" parent="1" source="OtnDP2cq1KqatE_Lq1au-3" target="OtnDP2cq1KqatE_Lq1au-96">
          <mxGeometry x="0.0196" relative="1" as="geometry">
            <mxPoint as="offset" />
          </mxGeometry>
        </mxCell>
        <mxCell id="OtnDP2cq1KqatE_Lq1au-196" value="M" style="edgeStyle=orthogonalEdgeStyle;rounded=0;orthogonalLoop=1;jettySize=auto;html=1;exitX=0.5;exitY=1;exitDx=0;exitDy=0;entryX=0.5;entryY=0;entryDx=0;entryDy=0;endArrow=none;endFill=0;" edge="1" parent="1" source="OtnDP2cq1KqatE_Lq1au-3" target="OtnDP2cq1KqatE_Lq1au-137">
          <mxGeometry relative="1" as="geometry" />
        </mxCell>
        <mxCell id="OtnDP2cq1KqatE_Lq1au-283" style="edgeStyle=orthogonalEdgeStyle;rounded=0;orthogonalLoop=1;jettySize=auto;html=1;exitX=0;exitY=0.5;exitDx=0;exitDy=0;entryX=1;entryY=0.5;entryDx=0;entryDy=0;endArrow=none;endFill=0;" edge="1" parent="1" source="OtnDP2cq1KqatE_Lq1au-3" target="OtnDP2cq1KqatE_Lq1au-228">
          <mxGeometry relative="1" as="geometry" />
        </mxCell>
        <mxCell id="OtnDP2cq1KqatE_Lq1au-301" value="N" style="edgeLabel;html=1;align=center;verticalAlign=middle;resizable=0;points=[];fontFamily=Helvetica;fontSize=11;fontColor=default;labelBackgroundColor=default;" vertex="1" connectable="0" parent="OtnDP2cq1KqatE_Lq1au-283">
          <mxGeometry x="0.4898" relative="1" as="geometry">
            <mxPoint as="offset" />
          </mxGeometry>
        </mxCell>
        <mxCell id="OtnDP2cq1KqatE_Lq1au-3" value="Members" style="rounded=0;whiteSpace=wrap;html=1;" vertex="1" parent="1">
          <mxGeometry x="850" y="376.5" width="130" height="40" as="geometry" />
        </mxCell>
        <mxCell id="OtnDP2cq1KqatE_Lq1au-140" style="edgeStyle=orthogonalEdgeStyle;rounded=0;orthogonalLoop=1;jettySize=auto;html=1;exitX=1;exitY=0.5;exitDx=0;exitDy=0;entryX=0.5;entryY=1;entryDx=0;entryDy=0;endArrow=none;endFill=0;" edge="1" parent="1" source="OtnDP2cq1KqatE_Lq1au-4" target="OtnDP2cq1KqatE_Lq1au-67">
          <mxGeometry relative="1" as="geometry" />
        </mxCell>
        <mxCell id="OtnDP2cq1KqatE_Lq1au-141" style="edgeStyle=orthogonalEdgeStyle;rounded=0;orthogonalLoop=1;jettySize=auto;html=1;exitX=1;exitY=0.5;exitDx=0;exitDy=0;entryX=0.5;entryY=1;entryDx=0;entryDy=0;endArrow=none;endFill=0;" edge="1" parent="1" source="OtnDP2cq1KqatE_Lq1au-4" target="OtnDP2cq1KqatE_Lq1au-136">
          <mxGeometry relative="1" as="geometry" />
        </mxCell>
        <mxCell id="OtnDP2cq1KqatE_Lq1au-4" value="FitnessAchievments" style="rounded=0;whiteSpace=wrap;html=1;" vertex="1" parent="1">
          <mxGeometry x="850" y="650" width="130" height="40" as="geometry" />
        </mxCell>
        <mxCell id="OtnDP2cq1KqatE_Lq1au-149" style="edgeStyle=orthogonalEdgeStyle;rounded=0;orthogonalLoop=1;jettySize=auto;html=1;exitX=0.5;exitY=0;exitDx=0;exitDy=0;entryX=0.5;entryY=1;entryDx=0;entryDy=0;endArrow=none;endFill=0;" edge="1" parent="1" source="OtnDP2cq1KqatE_Lq1au-5" target="OtnDP2cq1KqatE_Lq1au-134">
          <mxGeometry relative="1" as="geometry" />
        </mxCell>
        <mxCell id="OtnDP2cq1KqatE_Lq1au-206" value="1" style="edgeStyle=orthogonalEdgeStyle;rounded=0;orthogonalLoop=1;jettySize=auto;html=1;exitX=0;exitY=0.5;exitDx=0;exitDy=0;entryX=1;entryY=0.5;entryDx=0;entryDy=0;endArrow=none;endFill=0;" edge="1" parent="1" source="OtnDP2cq1KqatE_Lq1au-5" target="OtnDP2cq1KqatE_Lq1au-156">
          <mxGeometry x="-0.1429" relative="1" as="geometry">
            <mxPoint as="offset" />
          </mxGeometry>
        </mxCell>
        <mxCell id="OtnDP2cq1KqatE_Lq1au-248" value="1" style="edgeStyle=orthogonalEdgeStyle;rounded=0;orthogonalLoop=1;jettySize=auto;html=1;exitX=0.5;exitY=1;exitDx=0;exitDy=0;entryX=0.5;entryY=0;entryDx=0;entryDy=0;endArrow=none;endFill=0;" edge="1" parent="1" source="OtnDP2cq1KqatE_Lq1au-5" target="OtnDP2cq1KqatE_Lq1au-154">
          <mxGeometry relative="1" as="geometry" />
        </mxCell>
        <mxCell id="OtnDP2cq1KqatE_Lq1au-5" value="Trainers" style="rounded=0;whiteSpace=wrap;html=1;" vertex="1" parent="1">
          <mxGeometry x="435" y="202.5" width="130" height="40" as="geometry" />
        </mxCell>
        <mxCell id="OtnDP2cq1KqatE_Lq1au-223" style="edgeStyle=orthogonalEdgeStyle;rounded=0;orthogonalLoop=1;jettySize=auto;html=1;exitX=0.5;exitY=1;exitDx=0;exitDy=0;entryX=0.5;entryY=0;entryDx=0;entryDy=0;endArrow=none;endFill=0;" edge="1" parent="1" source="OtnDP2cq1KqatE_Lq1au-8" target="OtnDP2cq1KqatE_Lq1au-175">
          <mxGeometry relative="1" as="geometry">
            <Array as="points">
              <mxPoint x="500" y="510" />
              <mxPoint x="500" y="510" />
            </Array>
          </mxGeometry>
        </mxCell>
        <mxCell id="OtnDP2cq1KqatE_Lq1au-304" value="M" style="edgeLabel;html=1;align=center;verticalAlign=middle;resizable=0;points=[];fontFamily=Helvetica;fontSize=11;fontColor=default;labelBackgroundColor=default;" vertex="1" connectable="0" parent="OtnDP2cq1KqatE_Lq1au-223">
          <mxGeometry x="-0.075" y="-1" relative="1" as="geometry">
            <mxPoint as="offset" />
          </mxGeometry>
        </mxCell>
        <mxCell id="OtnDP2cq1KqatE_Lq1au-243" value="N" style="edgeStyle=orthogonalEdgeStyle;rounded=0;orthogonalLoop=1;jettySize=auto;html=1;exitX=0.5;exitY=1;exitDx=0;exitDy=0;entryX=0.5;entryY=0;entryDx=0;entryDy=0;endArrow=none;endFill=0;" edge="1" parent="1" source="OtnDP2cq1KqatE_Lq1au-8" target="OtnDP2cq1KqatE_Lq1au-174">
          <mxGeometry relative="1" as="geometry">
            <Array as="points">
              <mxPoint x="500" y="450" />
              <mxPoint x="375" y="450" />
            </Array>
          </mxGeometry>
        </mxCell>
        <mxCell id="OtnDP2cq1KqatE_Lq1au-263" style="edgeStyle=orthogonalEdgeStyle;rounded=0;orthogonalLoop=1;jettySize=auto;html=1;exitX=0;exitY=0.5;exitDx=0;exitDy=0;entryX=0.5;entryY=1;entryDx=0;entryDy=0;endArrow=none;endFill=0;" edge="1" parent="1" source="OtnDP2cq1KqatE_Lq1au-8" target="OtnDP2cq1KqatE_Lq1au-166">
          <mxGeometry relative="1" as="geometry" />
        </mxCell>
        <mxCell id="OtnDP2cq1KqatE_Lq1au-264" style="edgeStyle=orthogonalEdgeStyle;rounded=0;orthogonalLoop=1;jettySize=auto;html=1;exitX=0;exitY=0.5;exitDx=0;exitDy=0;entryX=0.5;entryY=1;entryDx=0;entryDy=0;endArrow=none;endFill=0;" edge="1" parent="1" source="OtnDP2cq1KqatE_Lq1au-8" target="OtnDP2cq1KqatE_Lq1au-163">
          <mxGeometry relative="1" as="geometry" />
        </mxCell>
        <mxCell id="OtnDP2cq1KqatE_Lq1au-267" style="edgeStyle=orthogonalEdgeStyle;rounded=0;orthogonalLoop=1;jettySize=auto;html=1;entryX=0.5;entryY=1;entryDx=0;entryDy=0;endArrow=none;endFill=0;" edge="1" parent="1" source="OtnDP2cq1KqatE_Lq1au-8" target="OtnDP2cq1KqatE_Lq1au-162">
          <mxGeometry relative="1" as="geometry" />
        </mxCell>
        <mxCell id="OtnDP2cq1KqatE_Lq1au-268" style="edgeStyle=orthogonalEdgeStyle;rounded=0;orthogonalLoop=1;jettySize=auto;html=1;exitX=0;exitY=0.5;exitDx=0;exitDy=0;entryX=0.5;entryY=0;entryDx=0;entryDy=0;endArrow=none;endFill=0;" edge="1" parent="1" source="OtnDP2cq1KqatE_Lq1au-8" target="OtnDP2cq1KqatE_Lq1au-165">
          <mxGeometry relative="1" as="geometry" />
        </mxCell>
        <mxCell id="OtnDP2cq1KqatE_Lq1au-269" style="edgeStyle=orthogonalEdgeStyle;rounded=0;orthogonalLoop=1;jettySize=auto;html=1;exitX=0;exitY=0.5;exitDx=0;exitDy=0;entryX=0.5;entryY=0;entryDx=0;entryDy=0;endArrow=none;endFill=0;" edge="1" parent="1" source="OtnDP2cq1KqatE_Lq1au-8" target="OtnDP2cq1KqatE_Lq1au-164">
          <mxGeometry relative="1" as="geometry" />
        </mxCell>
        <mxCell id="OtnDP2cq1KqatE_Lq1au-8" value="Events" style="rounded=0;whiteSpace=wrap;html=1;" vertex="1" parent="1">
          <mxGeometry x="435" y="376" width="130" height="40" as="geometry" />
        </mxCell>
        <mxCell id="OtnDP2cq1KqatE_Lq1au-215" style="edgeStyle=orthogonalEdgeStyle;rounded=0;orthogonalLoop=1;jettySize=auto;html=1;exitX=0.5;exitY=1;exitDx=0;exitDy=0;entryX=0.5;entryY=0;entryDx=0;entryDy=0;endArrow=none;endFill=0;" edge="1" parent="1" source="OtnDP2cq1KqatE_Lq1au-10" target="OtnDP2cq1KqatE_Lq1au-170">
          <mxGeometry relative="1" as="geometry" />
        </mxCell>
        <mxCell id="OtnDP2cq1KqatE_Lq1au-216" style="edgeStyle=orthogonalEdgeStyle;rounded=0;orthogonalLoop=1;jettySize=auto;html=1;exitX=0.5;exitY=1;exitDx=0;exitDy=0;entryX=0.5;entryY=0;entryDx=0;entryDy=0;endArrow=none;endFill=0;" edge="1" parent="1" source="OtnDP2cq1KqatE_Lq1au-10" target="OtnDP2cq1KqatE_Lq1au-169">
          <mxGeometry relative="1" as="geometry" />
        </mxCell>
        <mxCell id="OtnDP2cq1KqatE_Lq1au-217" style="edgeStyle=orthogonalEdgeStyle;rounded=0;orthogonalLoop=1;jettySize=auto;html=1;exitX=0.5;exitY=1;exitDx=0;exitDy=0;endArrow=none;endFill=0;" edge="1" parent="1" source="OtnDP2cq1KqatE_Lq1au-10" target="OtnDP2cq1KqatE_Lq1au-168">
          <mxGeometry relative="1" as="geometry" />
        </mxCell>
        <mxCell id="OtnDP2cq1KqatE_Lq1au-218" style="edgeStyle=orthogonalEdgeStyle;rounded=0;orthogonalLoop=1;jettySize=auto;html=1;exitX=0.5;exitY=1;exitDx=0;exitDy=0;entryX=0.5;entryY=0;entryDx=0;entryDy=0;endArrow=none;endFill=0;" edge="1" parent="1" source="OtnDP2cq1KqatE_Lq1au-10" target="OtnDP2cq1KqatE_Lq1au-172">
          <mxGeometry relative="1" as="geometry" />
        </mxCell>
        <mxCell id="OtnDP2cq1KqatE_Lq1au-288" value="M" style="edgeStyle=orthogonalEdgeStyle;rounded=0;orthogonalLoop=1;jettySize=auto;html=1;exitX=0;exitY=0.5;exitDx=0;exitDy=0;entryX=0.5;entryY=1;entryDx=0;entryDy=0;endArrow=none;endFill=0;" edge="1" parent="1" source="OtnDP2cq1KqatE_Lq1au-10" target="OtnDP2cq1KqatE_Lq1au-174">
          <mxGeometry relative="1" as="geometry" />
        </mxCell>
        <mxCell id="OtnDP2cq1KqatE_Lq1au-10" value="Equipment" style="rounded=0;whiteSpace=wrap;html=1;" vertex="1" parent="1">
          <mxGeometry x="435" y="570" width="130" height="40" as="geometry" />
        </mxCell>
        <mxCell id="OtnDP2cq1KqatE_Lq1au-12" value="&lt;u&gt;person_id&lt;/u&gt;" style="ellipse;whiteSpace=wrap;html=1;" vertex="1" parent="1">
          <mxGeometry x="200" y="30" width="120" height="40" as="geometry" />
        </mxCell>
        <mxCell id="OtnDP2cq1KqatE_Lq1au-18" value="first_name" style="ellipse;whiteSpace=wrap;html=1;" vertex="1" parent="1">
          <mxGeometry x="340" y="30" width="120" height="40" as="geometry" />
        </mxCell>
        <mxCell id="OtnDP2cq1KqatE_Lq1au-19" value="last_name" style="ellipse;whiteSpace=wrap;html=1;" vertex="1" parent="1">
          <mxGeometry x="480" y="30" width="120" height="40" as="geometry" />
        </mxCell>
        <mxCell id="OtnDP2cq1KqatE_Lq1au-20" value="phone_number" style="ellipse;whiteSpace=wrap;html=1;" vertex="1" parent="1">
          <mxGeometry x="620" y="30" width="120" height="40" as="geometry" />
        </mxCell>
        <mxCell id="OtnDP2cq1KqatE_Lq1au-21" value="description" style="ellipse;whiteSpace=wrap;html=1;" vertex="1" parent="1">
          <mxGeometry x="1180" y="116.75" width="120" height="40" as="geometry" />
        </mxCell>
        <mxCell id="OtnDP2cq1KqatE_Lq1au-23" value="&lt;u&gt;routine_id&lt;/u&gt;" style="ellipse;whiteSpace=wrap;html=1;" vertex="1" parent="1">
          <mxGeometry x="1040" y="116.75" width="120" height="40" as="geometry" />
        </mxCell>
        <mxCell id="OtnDP2cq1KqatE_Lq1au-24" value="address" style="ellipse;whiteSpace=wrap;html=1;" vertex="1" parent="1">
          <mxGeometry x="1180" y="30" width="120" height="40" as="geometry" />
        </mxCell>
        <mxCell id="OtnDP2cq1KqatE_Lq1au-25" value="gender" style="ellipse;whiteSpace=wrap;html=1;" vertex="1" parent="1">
          <mxGeometry x="1040" y="30" width="120" height="40" as="geometry" />
        </mxCell>
        <mxCell id="OtnDP2cq1KqatE_Lq1au-26" value="age" style="ellipse;whiteSpace=wrap;html=1;" vertex="1" parent="1">
          <mxGeometry x="900" y="30" width="120" height="40" as="geometry" />
        </mxCell>
        <mxCell id="OtnDP2cq1KqatE_Lq1au-27" value="email" style="ellipse;whiteSpace=wrap;html=1;" vertex="1" parent="1">
          <mxGeometry x="760" y="30" width="120" height="40" as="geometry" />
        </mxCell>
        <mxCell id="OtnDP2cq1KqatE_Lq1au-50" value="start_timeslot" style="ellipse;whiteSpace=wrap;html=1;" vertex="1" parent="1">
          <mxGeometry x="60" y="130" width="120" height="40" as="geometry" />
        </mxCell>
        <mxCell id="OtnDP2cq1KqatE_Lq1au-51" value="goal" style="ellipse;whiteSpace=wrap;html=1;" vertex="1" parent="1">
          <mxGeometry x="1180" y="438" width="120" height="40" as="geometry" />
        </mxCell>
        <mxCell id="OtnDP2cq1KqatE_Lq1au-52" value="time_weeks" style="ellipse;whiteSpace=wrap;html=1;" vertex="1" parent="1">
          <mxGeometry x="1180" y="499" width="120" height="40" as="geometry" />
        </mxCell>
        <mxCell id="OtnDP2cq1KqatE_Lq1au-67" value="&lt;u&gt;achievement_id&lt;/u&gt;" style="ellipse;whiteSpace=wrap;html=1;" vertex="1" parent="1">
          <mxGeometry x="1040" y="610" width="120" height="40" as="geometry" />
        </mxCell>
        <mxCell id="OtnDP2cq1KqatE_Lq1au-68" value="body_fat" style="ellipse;whiteSpace=wrap;html=1;" vertex="1" parent="1">
          <mxGeometry x="1180" y="377" width="120" height="40" as="geometry" />
        </mxCell>
        <mxCell id="OtnDP2cq1KqatE_Lq1au-69" value="height" style="ellipse;whiteSpace=wrap;html=1;" vertex="1" parent="1">
          <mxGeometry x="1180" y="317" width="120" height="40" as="geometry" />
        </mxCell>
        <mxCell id="OtnDP2cq1KqatE_Lq1au-71" value="balance" style="ellipse;whiteSpace=wrap;html=1;" vertex="1" parent="1">
          <mxGeometry x="1040" y="468" width="120" height="40" as="geometry" />
        </mxCell>
        <mxCell id="OtnDP2cq1KqatE_Lq1au-72" value="final_weight" style="ellipse;whiteSpace=wrap;html=1;" vertex="1" parent="1">
          <mxGeometry x="1040" y="408" width="120" height="40" as="geometry" />
        </mxCell>
        <mxCell id="OtnDP2cq1KqatE_Lq1au-73" value="init_weight" style="ellipse;whiteSpace=wrap;html=1;" vertex="1" parent="1">
          <mxGeometry x="1040" y="347" width="120" height="40" as="geometry" />
        </mxCell>
        <mxCell id="OtnDP2cq1KqatE_Lq1au-74" value="&lt;u&gt;member_id&lt;/u&gt;" style="ellipse;whiteSpace=wrap;html=1;" vertex="1" parent="1">
          <mxGeometry x="1040" y="287" width="120" height="40" as="geometry" />
        </mxCell>
        <mxCell id="OtnDP2cq1KqatE_Lq1au-195" value="1" style="edgeStyle=orthogonalEdgeStyle;rounded=0;orthogonalLoop=1;jettySize=auto;html=1;exitX=0.5;exitY=0;exitDx=0;exitDy=0;entryX=0.5;entryY=1;entryDx=0;entryDy=0;endArrow=none;endFill=0;dashed=1;" edge="1" parent="1" source="OtnDP2cq1KqatE_Lq1au-96" target="OtnDP2cq1KqatE_Lq1au-2">
          <mxGeometry relative="1" as="geometry">
            <mxPoint as="offset" />
          </mxGeometry>
        </mxCell>
        <mxCell id="OtnDP2cq1KqatE_Lq1au-96" value="has" style="rhombus;whiteSpace=wrap;html=1;" vertex="1" parent="1">
          <mxGeometry x="857.5" y="274.5" width="115" height="42.5" as="geometry" />
        </mxCell>
        <mxCell id="OtnDP2cq1KqatE_Lq1au-132" value="date_achieved" style="ellipse;whiteSpace=wrap;html=1;" vertex="1" parent="1">
          <mxGeometry x="990" y="539" width="120" height="40" as="geometry" />
        </mxCell>
        <mxCell id="OtnDP2cq1KqatE_Lq1au-133" value="day_of_week" style="ellipse;whiteSpace=wrap;html=1;" vertex="1" parent="1">
          <mxGeometry x="200" y="130" width="120" height="40" as="geometry" />
        </mxCell>
        <mxCell id="OtnDP2cq1KqatE_Lq1au-134" value="&lt;u&gt;trainer_id&lt;/u&gt;" style="ellipse;whiteSpace=wrap;html=1;" vertex="1" parent="1">
          <mxGeometry x="440" y="140" width="120" height="40" as="geometry" />
        </mxCell>
        <mxCell id="OtnDP2cq1KqatE_Lq1au-136" value="description" style="ellipse;whiteSpace=wrap;html=1;" vertex="1" parent="1">
          <mxGeometry x="1180" y="610" width="120" height="40" as="geometry" />
        </mxCell>
        <mxCell id="OtnDP2cq1KqatE_Lq1au-281" value="N" style="edgeStyle=orthogonalEdgeStyle;rounded=0;orthogonalLoop=1;jettySize=auto;html=1;exitX=0.5;exitY=1;exitDx=0;exitDy=0;entryX=0.5;entryY=0;entryDx=0;entryDy=0;endArrow=none;endFill=0;dashed=1;" edge="1" parent="1" source="OtnDP2cq1KqatE_Lq1au-137" target="OtnDP2cq1KqatE_Lq1au-4">
          <mxGeometry relative="1" as="geometry" />
        </mxCell>
        <mxCell id="OtnDP2cq1KqatE_Lq1au-292" style="rounded=0;orthogonalLoop=1;jettySize=auto;html=1;exitX=1;exitY=1;exitDx=0;exitDy=0;entryX=0;entryY=0.5;entryDx=0;entryDy=0;endArrow=none;endFill=0;" edge="1" parent="1" source="OtnDP2cq1KqatE_Lq1au-137" target="OtnDP2cq1KqatE_Lq1au-132">
          <mxGeometry relative="1" as="geometry" />
        </mxCell>
        <mxCell id="OtnDP2cq1KqatE_Lq1au-137" value="has" style="rhombus;whiteSpace=wrap;html=1;" vertex="1" parent="1">
          <mxGeometry x="857.5" y="520" width="115" height="43" as="geometry" />
        </mxCell>
        <mxCell id="OtnDP2cq1KqatE_Lq1au-221" value="N" style="edgeStyle=orthogonalEdgeStyle;rounded=0;orthogonalLoop=1;jettySize=auto;html=1;exitX=0.5;exitY=1;exitDx=0;exitDy=0;entryX=0.5;entryY=0;entryDx=0;entryDy=0;endArrow=none;endFill=0;" edge="1" parent="1" source="OtnDP2cq1KqatE_Lq1au-154" target="OtnDP2cq1KqatE_Lq1au-8">
          <mxGeometry relative="1" as="geometry" />
        </mxCell>
        <mxCell id="OtnDP2cq1KqatE_Lq1au-154" value="hosts" style="rhombus;whiteSpace=wrap;html=1;" vertex="1" parent="1">
          <mxGeometry x="447.5" y="285" width="105" height="50" as="geometry" />
        </mxCell>
        <mxCell id="OtnDP2cq1KqatE_Lq1au-298" value="N" style="edgeStyle=orthogonalEdgeStyle;rounded=0;orthogonalLoop=1;jettySize=auto;html=1;exitX=0;exitY=0.5;exitDx=0;exitDy=0;entryX=1;entryY=0.5;entryDx=0;entryDy=0;strokeColor=default;align=center;verticalAlign=middle;fontFamily=Helvetica;fontSize=11;fontColor=default;labelBackgroundColor=default;endArrow=none;endFill=0;" edge="1" parent="1" source="OtnDP2cq1KqatE_Lq1au-156" target="OtnDP2cq1KqatE_Lq1au-297">
          <mxGeometry relative="1" as="geometry" />
        </mxCell>
        <mxCell id="OtnDP2cq1KqatE_Lq1au-156" value="sets" style="rhombus;whiteSpace=wrap;html=1;" vertex="1" parent="1">
          <mxGeometry x="290" y="200" width="110" height="45" as="geometry" />
        </mxCell>
        <mxCell id="OtnDP2cq1KqatE_Lq1au-233" style="edgeStyle=orthogonalEdgeStyle;rounded=0;orthogonalLoop=1;jettySize=auto;html=1;exitX=0.5;exitY=1;exitDx=0;exitDy=0;entryX=0;entryY=0.5;entryDx=0;entryDy=0;endArrow=none;endFill=0;" edge="1" parent="1" source="OtnDP2cq1KqatE_Lq1au-157" target="OtnDP2cq1KqatE_Lq1au-3">
          <mxGeometry relative="1" as="geometry" />
        </mxCell>
        <mxCell id="OtnDP2cq1KqatE_Lq1au-277" value="1" style="edgeLabel;html=1;align=center;verticalAlign=middle;resizable=0;points=[];" vertex="1" connectable="0" parent="OtnDP2cq1KqatE_Lq1au-233">
          <mxGeometry x="-0.3634" y="-1" relative="1" as="geometry">
            <mxPoint as="offset" />
          </mxGeometry>
        </mxCell>
        <mxCell id="OtnDP2cq1KqatE_Lq1au-157" value="is" style="rhombus;whiteSpace=wrap;html=1;" vertex="1" parent="1">
          <mxGeometry x="750" y="235" width="110" height="45" as="geometry" />
        </mxCell>
        <mxCell id="OtnDP2cq1KqatE_Lq1au-158" value="day_of_week" style="ellipse;whiteSpace=wrap;html=1;" vertex="1" parent="1">
          <mxGeometry x="710" y="448" width="120" height="40" as="geometry" />
        </mxCell>
        <mxCell id="OtnDP2cq1KqatE_Lq1au-160" value="start_hour" style="ellipse;whiteSpace=wrap;html=1;" vertex="1" parent="1">
          <mxGeometry x="580" y="448" width="120" height="40" as="geometry" />
        </mxCell>
        <mxCell id="OtnDP2cq1KqatE_Lq1au-162" value="available" style="ellipse;whiteSpace=wrap;html=1;" vertex="1" parent="1">
          <mxGeometry x="60" y="335" width="120" height="40" as="geometry" />
        </mxCell>
        <mxCell id="OtnDP2cq1KqatE_Lq1au-163" value="cost" style="ellipse;whiteSpace=wrap;html=1;" vertex="1" parent="1">
          <mxGeometry x="189" y="335" width="120" height="40" as="geometry" />
        </mxCell>
        <mxCell id="OtnDP2cq1KqatE_Lq1au-164" value="room" style="ellipse;whiteSpace=wrap;html=1;" vertex="1" parent="1">
          <mxGeometry x="125" y="416" width="120" height="40" as="geometry" />
        </mxCell>
        <mxCell id="OtnDP2cq1KqatE_Lq1au-165" value="&lt;u&gt;event_id&lt;/u&gt;" style="ellipse;whiteSpace=wrap;html=1;" vertex="1" parent="1">
          <mxGeometry x="255" y="416" width="120" height="40" as="geometry" />
        </mxCell>
        <mxCell id="OtnDP2cq1KqatE_Lq1au-166" value="total_capacity" style="ellipse;whiteSpace=wrap;html=1;" vertex="1" parent="1">
          <mxGeometry x="320" y="335" width="120" height="40" as="geometry" />
        </mxCell>
        <mxCell id="OtnDP2cq1KqatE_Lq1au-167" value="num_in_use" style="ellipse;whiteSpace=wrap;html=1;" vertex="1" parent="1">
          <mxGeometry x="230" y="539" width="120" height="40" as="geometry" />
        </mxCell>
        <mxCell id="OtnDP2cq1KqatE_Lq1au-168" value="defective_count" style="ellipse;whiteSpace=wrap;html=1;" vertex="1" parent="1">
          <mxGeometry x="375" y="650" width="120" height="40" as="geometry" />
        </mxCell>
        <mxCell id="OtnDP2cq1KqatE_Lq1au-169" value="label" style="ellipse;whiteSpace=wrap;html=1;" vertex="1" parent="1">
          <mxGeometry x="505" y="650" width="120" height="40" as="geometry" />
        </mxCell>
        <mxCell id="OtnDP2cq1KqatE_Lq1au-170" value="&lt;u&gt;equipment_id&lt;/u&gt;" style="ellipse;whiteSpace=wrap;html=1;" vertex="1" parent="1">
          <mxGeometry x="635" y="650" width="120" height="40" as="geometry" />
        </mxCell>
        <mxCell id="OtnDP2cq1KqatE_Lq1au-172" value="total_quantity" style="ellipse;whiteSpace=wrap;html=1;" vertex="1" parent="1">
          <mxGeometry x="245" y="650" width="120" height="40" as="geometry" />
        </mxCell>
        <mxCell id="OtnDP2cq1KqatE_Lq1au-289" style="rounded=0;orthogonalLoop=1;jettySize=auto;html=1;exitX=0;exitY=1;exitDx=0;exitDy=0;entryX=0.5;entryY=0;entryDx=0;entryDy=0;endArrow=none;endFill=0;" edge="1" parent="1" source="OtnDP2cq1KqatE_Lq1au-174" target="OtnDP2cq1KqatE_Lq1au-167">
          <mxGeometry relative="1" as="geometry" />
        </mxCell>
        <mxCell id="OtnDP2cq1KqatE_Lq1au-174" value="uses" style="rhombus;whiteSpace=wrap;html=1;" vertex="1" parent="1">
          <mxGeometry x="320" y="488" width="110" height="45" as="geometry" />
        </mxCell>
        <mxCell id="OtnDP2cq1KqatE_Lq1au-236" value="N" style="edgeStyle=orthogonalEdgeStyle;rounded=0;orthogonalLoop=1;jettySize=auto;html=1;exitX=0.5;exitY=1;exitDx=0;exitDy=0;entryX=0.5;entryY=0;entryDx=0;entryDy=0;endArrow=none;endFill=0;" edge="1" parent="1" source="OtnDP2cq1KqatE_Lq1au-175" target="OtnDP2cq1KqatE_Lq1au-10">
          <mxGeometry relative="1" as="geometry" />
        </mxCell>
        <mxCell id="OtnDP2cq1KqatE_Lq1au-175" value="has" style="rhombus;whiteSpace=wrap;html=1;" vertex="1" parent="1">
          <mxGeometry x="447.5" y="488" width="105" height="45" as="geometry" />
        </mxCell>
        <mxCell id="OtnDP2cq1KqatE_Lq1au-193" value="1" style="edgeStyle=orthogonalEdgeStyle;rounded=0;orthogonalLoop=1;jettySize=auto;html=1;exitX=0;exitY=0.5;exitDx=0;exitDy=0;entryX=1;entryY=0.5;entryDx=0;entryDy=0;endArrow=none;endFill=0;" edge="1" parent="1" source="OtnDP2cq1KqatE_Lq1au-183" target="OtnDP2cq1KqatE_Lq1au-5">
          <mxGeometry relative="1" as="geometry" />
        </mxCell>
        <mxCell id="OtnDP2cq1KqatE_Lq1au-183" value="is" style="rhombus;whiteSpace=wrap;html=1;" vertex="1" parent="1">
          <mxGeometry x="625" y="235" width="110" height="45" as="geometry" />
        </mxCell>
        <mxCell id="OtnDP2cq1KqatE_Lq1au-284" value="M" style="edgeStyle=orthogonalEdgeStyle;rounded=0;orthogonalLoop=1;jettySize=auto;html=1;exitX=0;exitY=0.5;exitDx=0;exitDy=0;entryX=1;entryY=0.5;entryDx=0;entryDy=0;endArrow=none;endFill=0;" edge="1" parent="1" source="OtnDP2cq1KqatE_Lq1au-228" target="OtnDP2cq1KqatE_Lq1au-8">
          <mxGeometry relative="1" as="geometry">
            <mxPoint x="610" y="422" as="targetPoint" />
          </mxGeometry>
        </mxCell>
        <mxCell id="OtnDP2cq1KqatE_Lq1au-285" style="rounded=0;orthogonalLoop=1;jettySize=auto;html=1;exitX=0;exitY=1;exitDx=0;exitDy=0;entryX=0.5;entryY=0;entryDx=0;entryDy=0;endArrow=none;endFill=0;" edge="1" parent="1" source="OtnDP2cq1KqatE_Lq1au-228" target="OtnDP2cq1KqatE_Lq1au-160">
          <mxGeometry relative="1" as="geometry" />
        </mxCell>
        <mxCell id="OtnDP2cq1KqatE_Lq1au-286" style="rounded=0;orthogonalLoop=1;jettySize=auto;html=1;exitX=1;exitY=1;exitDx=0;exitDy=0;endArrow=none;endFill=0;" edge="1" parent="1" source="OtnDP2cq1KqatE_Lq1au-228" target="OtnDP2cq1KqatE_Lq1au-158">
          <mxGeometry relative="1" as="geometry" />
        </mxCell>
        <mxCell id="OtnDP2cq1KqatE_Lq1au-228" value="attends" style="rhombus;whiteSpace=wrap;html=1;" vertex="1" parent="1">
          <mxGeometry x="645" y="371" width="110" height="50" as="geometry" />
        </mxCell>
        <mxCell id="OtnDP2cq1KqatE_Lq1au-252" style="edgeStyle=orthogonalEdgeStyle;rounded=0;orthogonalLoop=1;jettySize=auto;html=1;exitX=0.5;exitY=1;exitDx=0;exitDy=0;" edge="1" parent="1" source="OtnDP2cq1KqatE_Lq1au-164" target="OtnDP2cq1KqatE_Lq1au-164">
          <mxGeometry relative="1" as="geometry" />
        </mxCell>
        <mxCell id="OtnDP2cq1KqatE_Lq1au-287" style="edgeStyle=orthogonalEdgeStyle;rounded=0;orthogonalLoop=1;jettySize=auto;html=1;exitX=0.5;exitY=1;exitDx=0;exitDy=0;" edge="1" parent="1" source="OtnDP2cq1KqatE_Lq1au-160" target="OtnDP2cq1KqatE_Lq1au-160">
          <mxGeometry relative="1" as="geometry" />
        </mxCell>
        <mxCell id="OtnDP2cq1KqatE_Lq1au-299" style="edgeStyle=orthogonalEdgeStyle;rounded=0;orthogonalLoop=1;jettySize=auto;html=1;exitX=0.5;exitY=0;exitDx=0;exitDy=0;entryX=0.5;entryY=1;entryDx=0;entryDy=0;strokeColor=default;align=center;verticalAlign=middle;fontFamily=Helvetica;fontSize=11;fontColor=default;labelBackgroundColor=default;endArrow=none;endFill=0;" edge="1" parent="1" source="OtnDP2cq1KqatE_Lq1au-297" target="OtnDP2cq1KqatE_Lq1au-133">
          <mxGeometry relative="1" as="geometry" />
        </mxCell>
        <mxCell id="OtnDP2cq1KqatE_Lq1au-300" style="edgeStyle=orthogonalEdgeStyle;rounded=0;orthogonalLoop=1;jettySize=auto;html=1;exitX=0.5;exitY=0;exitDx=0;exitDy=0;entryX=0.5;entryY=1;entryDx=0;entryDy=0;strokeColor=default;align=center;verticalAlign=middle;fontFamily=Helvetica;fontSize=11;fontColor=default;labelBackgroundColor=default;endArrow=none;endFill=0;" edge="1" parent="1" source="OtnDP2cq1KqatE_Lq1au-297" target="OtnDP2cq1KqatE_Lq1au-50">
          <mxGeometry relative="1" as="geometry" />
        </mxCell>
        <mxCell id="OtnDP2cq1KqatE_Lq1au-297" value="Availability" style="shape=ext;margin=3;double=1;whiteSpace=wrap;html=1;align=center;" vertex="1" parent="1">
          <mxGeometry x="120" y="202.5" width="130" height="40" as="geometry" />
        </mxCell>
        <mxCell id="OtnDP2cq1KqatE_Lq1au-305" value="&lt;h1 style=&quot;margin-top: 0px;&quot;&gt;&lt;font style=&quot;font-size: 14px;&quot;&gt;Assumptions&lt;/font&gt;&lt;/h1&gt;&lt;div&gt;&lt;font style=&quot;font-size: 14px;&quot;&gt;- For relations, dotted lines represent an optional relation; solid lines represent&amp;nbsp; a mandatory relation&lt;/font&gt;&lt;/div&gt;" style="text;html=1;whiteSpace=wrap;overflow=hidden;rounded=0;fontFamily=Helvetica;fontSize=11;fontColor=default;labelBackgroundColor=default;" vertex="1" parent="1">
          <mxGeometry x="80" y="720" width="660" height="80" as="geometry" />
        </mxCell>
      </root>
    </mxGraphModel>
  </diagram>
</mxfile>
